<?xml version="1.0" encoding="UTF-8" standalone="no"?>
<!DOCTYPE svg PUBLIC "-//W3C//DTD SVG 1.1//EN"
 "http://www.w3.org/Graphics/SVG/1.1/DTD/svg11.dtd">
<!-- Generated by graphviz version 2.40.1 (20161225.0304)
 -->
<!-- Title: dependencies Pages: 1 -->
<svg width="1252pt" height="284pt"
 viewBox="0.00 0.00 1252.00 284.00" xmlns="http://www.w3.org/2000/svg" xmlns:xlink="http://www.w3.org/1999/xlink">
<g id="graph0" class="graph" transform="scale(1 1) rotate(0) translate(4 280)">
<title>dependencies</title>
<polygon fill="#ffffff" stroke="transparent" points="-4,4 -4,-280 1248,-280 1248,4 -4,4"/>
<text text-anchor="start" x="601.0091" y="-42.4" font-family="sans-serif" font-weight="bold" font-size="14.00" fill="#000000">Legend</text>
<polygon fill="#ffffb3" stroke="transparent" points="388,-10 388,-30 408,-30 408,-10 388,-10"/>
<text text-anchor="start" x="411.629" y="-15.4" font-family="sans-serif" font-size="14.00" fill="#000000"> &#160;Declarations</text>
<polygon fill="#8dd3c7" stroke="transparent" points="501,-10 501,-30 521,-30 521,-10 501,-10"/>
<text text-anchor="start" x="524.7251" y="-15.4" font-family="sans-serif" font-size="14.00" fill="#000000"> &#160;Module</text>
<polygon fill="#80b1d3" stroke="transparent" points="587,-10 587,-30 607,-30 607,-10 587,-10"/>
<text text-anchor="start" x="610.7812" y="-15.4" font-family="sans-serif" font-size="14.00" fill="#000000"> &#160;Bootstrap</text>
<polygon fill="#fdb462" stroke="transparent" points="684,-10 684,-30 704,-30 704,-10 684,-10"/>
<text text-anchor="start" x="707.6732" y="-15.4" font-family="sans-serif" font-size="14.00" fill="#000000"> &#160;Providers</text>
<polygon fill="#fb8072" stroke="transparent" points="780,-10 780,-30 800,-30 800,-10 780,-10"/>
<text text-anchor="start" x="803.7258" y="-15.4" font-family="sans-serif" font-size="14.00" fill="#000000"> &#160;Exports</text>
<g id="clust1" class="cluster">
<title>cluster_AppModule</title>
<polygon fill="none" stroke="#000000" stroke-dasharray="1,5" points="8,-70 8,-268 1236,-268 1236,-70 8,-70"/>
</g>
<g id="clust2" class="cluster">
<title>cluster_AppModule_declarations</title>
<polygon fill="none" stroke="#000000" points="498,-78 498,-130 1228,-130 1228,-78 498,-78"/>
</g>
<g id="clust8" class="cluster">
<title>cluster_AppModule_imports</title>
<polygon fill="none" stroke="#000000" points="324,-78 324,-130 490,-130 490,-78 324,-78"/>
</g>
<g id="clust10" class="cluster">
<title>cluster_AppModule_bootstrap</title>
<polygon fill="none" stroke="#000000" points="602,-208 602,-260 726,-260 726,-208 602,-208"/>
</g>
<g id="clust11" class="cluster">
<title>cluster_AppModule_providers</title>
<polygon fill="none" stroke="#000000" points="16,-78 16,-130 316,-130 316,-78 16,-78"/>
</g>
<!-- AppComponent -->
<g id="node1" class="node">
<title>AppComponent</title>
<polygon fill="#ffffb3" stroke="#000000" points="1219.9399,-122 1114.0601,-122 1114.0601,-86 1219.9399,-86 1219.9399,-122"/>
<text text-anchor="middle" x="1167" y="-99.8" font-family="Times,serif" font-size="14.00" fill="#000000">AppComponent</text>
</g>
<!-- AppModule -->
<g id="node6" class="node">
<title>AppModule</title>
<polygon fill="#8dd3c7" stroke="#000000" points="705.6571,-187 702.6571,-191 681.6571,-191 678.6571,-187 622.3429,-187 622.3429,-151 705.6571,-151 705.6571,-187"/>
<text text-anchor="middle" x="664" y="-164.8" font-family="Times,serif" font-size="14.00" fill="#000000">AppModule</text>
</g>
<!-- AppComponent&#45;&gt;AppModule -->
<g id="edge1" class="edge">
<title>AppComponent&#45;&gt;AppModule</title>
<path fill="none" stroke="#000000" d="M1167,-122.2921C1167,-144.2057 1167,-178 1167,-178 1167,-178 716.0203,-178 716.0203,-178"/>
<polygon fill="#000000" stroke="#000000" points="716.0204,-174.5001 706.0203,-178 716.0203,-181.5001 716.0204,-174.5001"/>
</g>
<!-- NavbarComponent -->
<g id="node2" class="node">
<title>NavbarComponent</title>
<polygon fill="#ffffb3" stroke="#000000" points="1096.0297,-122 973.9703,-122 973.9703,-86 1096.0297,-86 1096.0297,-122"/>
<text text-anchor="middle" x="1035" y="-99.8" font-family="Times,serif" font-size="14.00" fill="#000000">NavbarComponent</text>
</g>
<!-- NavbarComponent&#45;&gt;AppModule -->
<g id="edge2" class="edge">
<title>NavbarComponent&#45;&gt;AppModule</title>
<path fill="none" stroke="#000000" d="M1035,-122.1061C1035,-141.3391 1035,-169 1035,-169 1035,-169 715.8372,-169 715.8372,-169"/>
<polygon fill="#000000" stroke="#000000" points="715.8373,-165.5001 705.8372,-169 715.8372,-172.5001 715.8373,-165.5001"/>
</g>
<!-- HomeComponent -->
<g id="node3" class="node">
<title>HomeComponent</title>
<polygon fill="#ffffb3" stroke="#000000" points="955.5451,-122 840.4549,-122 840.4549,-86 955.5451,-86 955.5451,-122"/>
<text text-anchor="middle" x="898" y="-99.8" font-family="Times,serif" font-size="14.00" fill="#000000">HomeComponent</text>
</g>
<!-- HomeComponent&#45;&gt;AppModule -->
<g id="edge3" class="edge">
<title>HomeComponent&#45;&gt;AppModule</title>
<path fill="none" stroke="#000000" d="M898,-122.027C898,-138.3976 898,-160 898,-160 898,-160 715.8345,-160 715.8345,-160"/>
<polygon fill="#000000" stroke="#000000" points="715.8345,-156.5001 705.8345,-160 715.8345,-163.5001 715.8345,-156.5001"/>
</g>
<!-- SplashpanelComponent -->
<g id="node4" class="node">
<title>SplashpanelComponent</title>
<polygon fill="#ffffb3" stroke="#000000" points="822.4846,-122 673.5154,-122 673.5154,-86 822.4846,-86 822.4846,-122"/>
<text text-anchor="middle" x="748" y="-99.8" font-family="Times,serif" font-size="14.00" fill="#000000">SplashpanelComponent</text>
</g>
<!-- SplashpanelComponent&#45;&gt;AppModule -->
<g id="edge4" class="edge">
<title>SplashpanelComponent&#45;&gt;AppModule</title>
<path fill="none" stroke="#000000" d="M689.668,-122.1061C689.668,-122.1061 689.668,-140.991 689.668,-140.991"/>
<polygon fill="#000000" stroke="#000000" points="686.168,-140.9909 689.668,-150.991 693.168,-140.991 686.168,-140.9909"/>
</g>
<!-- RegistrationComponent -->
<g id="node5" class="node">
<title>RegistrationComponent</title>
<polygon fill="#ffffb3" stroke="#000000" points="655.766,-122 506.234,-122 506.234,-86 655.766,-86 655.766,-122"/>
<text text-anchor="middle" x="581" y="-99.8" font-family="Times,serif" font-size="14.00" fill="#000000">RegistrationComponent</text>
</g>
<!-- RegistrationComponent&#45;&gt;AppModule -->
<g id="edge5" class="edge">
<title>RegistrationComponent&#45;&gt;AppModule</title>
<path fill="none" stroke="#000000" d="M639.0274,-122.1061C639.0274,-122.1061 639.0274,-140.991 639.0274,-140.991"/>
<polygon fill="#000000" stroke="#000000" points="635.5274,-140.9909 639.0274,-150.991 642.5274,-140.991 635.5274,-140.9909"/>
</g>
<!-- AppComponent  -->
<g id="node8" class="node">
<title>AppComponent </title>
<polygon fill="#80b1d3" stroke="#000000" points="718.439,-252 609.561,-252 609.561,-216 718.439,-216 718.439,-252"/>
<text text-anchor="middle" x="664" y="-229.8" font-family="Times,serif" font-size="14.00" fill="#000000">AppComponent </text>
</g>
<!-- AppModule&#45;&gt;AppComponent  -->
<g id="edge7" class="edge">
<title>AppModule&#45;&gt;AppComponent </title>
<path fill="none" stroke="#000000" stroke-dasharray="1,5" d="M664,-187.1061C664,-187.1061 664,-205.991 664,-205.991"/>
<polygon fill="#000000" stroke="#000000" points="660.5001,-205.9909 664,-215.991 667.5001,-205.991 660.5001,-205.9909"/>
</g>
<!-- UiRouteModuleModule -->
<g id="node7" class="node">
<title>UiRouteModuleModule</title>
<polygon fill="#8dd3c7" stroke="#000000" points="482.0393,-122 479.0393,-126 458.0393,-126 455.0393,-122 331.9607,-122 331.9607,-86 482.0393,-86 482.0393,-122"/>
<text text-anchor="middle" x="407" y="-99.8" font-family="Times,serif" font-size="14.00" fill="#000000">UiRouteModuleModule</text>
</g>
<!-- UiRouteModuleModule&#45;&gt;AppModule -->
<g id="edge6" class="edge">
<title>UiRouteModuleModule&#45;&gt;AppModule</title>
<path fill="none" stroke="#000000" d="M407,-122.027C407,-138.3976 407,-160 407,-160 407,-160 612.1365,-160 612.1365,-160"/>
<polygon fill="#000000" stroke="#000000" points="612.1366,-163.5001 622.1365,-160 612.1365,-156.5001 612.1366,-163.5001"/>
</g>
<!-- AuthService -->
<g id="node9" class="node">
<title>AuthService</title>
<ellipse fill="#fdb462" stroke="#000000" cx="249" cy="-104" rx="59.1083" ry="18"/>
<text text-anchor="middle" x="249" y="-99.8" font-family="Times,serif" font-size="14.00" fill="#000000">AuthService</text>
</g>
<!-- AuthService&#45;&gt;AppModule -->
<g id="edge8" class="edge">
<title>AuthService&#45;&gt;AppModule</title>
<path fill="none" stroke="#000000" d="M249,-122.1061C249,-141.3391 249,-169 249,-169 249,-169 612.3081,-169 612.3081,-169"/>
<polygon fill="#000000" stroke="#000000" points="612.3081,-172.5001 622.3081,-169 612.3081,-165.5001 612.3081,-172.5001"/>
</g>
<!-- AppHttpService -->
<g id="node10" class="node">
<title>AppHttpService</title>
<ellipse fill="#fdb462" stroke="#000000" cx="98" cy="-104" rx="73.5753" ry="18"/>
<text text-anchor="middle" x="98" y="-99.8" font-family="Times,serif" font-size="14.00" fill="#000000">AppHttpService</text>
</g>
<!-- AppHttpService&#45;&gt;AppModule -->
<g id="edge9" class="edge">
<title>AppHttpService&#45;&gt;AppModule</title>
<path fill="none" stroke="#000000" d="M98,-122.2921C98,-144.2057 98,-178 98,-178 98,-178 611.9204,-178 611.9204,-178"/>
<polygon fill="#000000" stroke="#000000" points="611.9205,-181.5001 621.9204,-178 611.9204,-174.5001 611.9205,-181.5001"/>
</g>
</g>
</svg>
